<?xml version="1.0" encoding="UTF-8"?>
<svg id="Layer_2" data-name="Layer 2" xmlns="http://www.w3.org/2000/svg" viewBox="0 0 316.21 157.39">
  <defs>
    <style>
      .cls-1 {
        fill: #d8fe42;
      }
    </style>
  </defs>
  <g id="Layer_1-2" data-name="Layer 1">
    <g>
      <g>
        <path class="cls-1" d="M21.75,149.05h4.32c.46,3.37,2.29,4.94,5.63,4.94s4.78-1.24,4.78-2.94c0-2.42-3.04-3.17-6.35-4.06-3.89-1.05-8.15-2.32-8.15-6.84,0-3.86,3.3-6.48,8.57-6.48,5.72,0,9.39,2.88,9.98,8.05h-4.12c-.49-3.04-2.52-4.68-5.72-4.68-2.95,0-4.35,1.18-4.35,2.75,0,2.22,2.78,2.98,5.92,3.86,3.99,1.08,8.54,2.36,8.54,7.03,0,3.99-3.37,6.67-8.93,6.67-5.99,0-9.52-2.94-10.11-8.31Z"/>
        <path class="cls-1" d="M80.92,137.53h-7.82v-3.47h20.02v3.47h-7.85v19.43h-4.35v-19.43Z"/>
        <path class="cls-1" d="M127.04,148.56v-14.49h4.38v14.69c0,3.24,2.16,5.04,5.14,5.04s5.23-1.8,5.23-5.01v-14.72h4.22v14.53c0,5.56-3.79,8.77-9.52,8.77s-9.46-3.24-9.46-8.8Z"/>
        <path class="cls-1" d="M180.66,134.07h8.28c6.74,0,11.25,4.15,11.25,11.48s-4.58,11.42-11.35,11.42h-8.18v-22.9ZM185.01,137.57v15.96h3.73c4.38,0,7-2.65,7-7.95s-2.62-8.02-7-8.02h-3.73Z"/>
        <path class="cls-1" d="M234.5,134.07h4.35v22.9h-4.35v-22.9Z"/>
        <path class="cls-1" d="M273.17,145.52c0-7.69,4.35-11.88,10.63-11.88s10.6,4.19,10.6,11.88-4.35,11.88-10.6,11.88-10.63-4.19-10.63-11.88ZM289.95,145.52c0-5.5-2.45-8.38-6.15-8.38s-6.18,2.88-6.18,8.38,2.49,8.38,6.18,8.38,6.15-2.88,6.15-8.38Z"/>
      </g>
      <g>
        <path class="cls-1" d="M4.99,57.48c-.55.56-1.11.56-1.66,0l-2.99-3.2c-.23-.22-.34-.51-.34-.84V10.52c0-.34.11-.62.34-.84l2.99-3.03c.55-.56,1.11-.56,1.66,0l9.15,9.09c.22.23.34.51.34.84v30.8c0,.34-.11.62-.34.84l-9.15,9.26Z"/>
        <path class="cls-1" d="M4.99,109.66c-.55.56-1.11.56-1.66,0l-2.99-3.03c-.23-.22-.34-.51-.34-.84v-43.09c0-.34.11-.62.34-.84l2.99-3.03c.55-.56,1.11-.56,1.66,0l9.15,9.26c.22.23.34.51.34.84v30.8c0,.34-.11.62-.34.84l-9.15,9.09Z"/>
        <path class="cls-1" d="M48.14,14.55c-.23.23-.51.34-.85.34h-30.96c-.34,0-.62-.11-.85-.34L6.23,5.19c-.56-.57-.56-1.13,0-1.7L9.26.42c.22-.22.51-.34.84-.34h43.26c.34,0,.62.11.84.34l3.03,3.07c.56.57.56,1.13,0,1.7l-9.09,9.37Z"/>
        <path class="cls-1" d="M60.13,57.48c-.56.56-1.05.56-1.5,0l-9.15-9.26c-.23-.22-.34-.51-.34-.84v-30.8c0-.34.11-.62.34-.84l9.15-9.09c.44-.45.94-.45,1.5,0l3.16,3.03c.22.23.34.5.34.84v42.92c0,.34-.11.62-.34.84l-3.16,3.2Z"/>
        <path class="cls-1" d="M60.13,109.66c-.56.56-1.05.56-1.5,0l-9.15-9.09c-.23-.22-.34-.51-.34-.84v-30.8c0-.34.11-.62.34-.84l9.15-9.26c.44-.45.94-.45,1.5,0l3.16,3.03c.22.23.34.51.34.84v43.09c0,.34-.11.62-.34.84l-3.16,3.03Z"/>
        <path class="cls-1" d="M135.38,57.48c-.56.56-1.05.56-1.5,0l-9.15-9.26c-.23-.22-.34-.51-.34-.84v-30.8c0-.34.11-.62.34-.84l9.15-9.09c.44-.45.94-.45,1.5,0l3.16,3.03c.22.23.34.5.34.84v42.92c0,.34-.11.62-.34.84l-3.16,3.2Z"/>
        <path class="cls-1" d="M135.38,109.66c-.56.56-1.05.56-1.5,0l-9.15-9.09c-.23-.22-.34-.51-.34-.84v-30.8c0-.34.11-.62.34-.84l9.15-9.26c.44-.45.94-.45,1.5,0l3.16,3.03c.22.23.34.51.34.84v43.09c0,.34-.11.62-.34.84l-3.16,3.03Z"/>
        <path class="cls-1" d="M165.64,37.45c0,.79-.39,1.18-1.18,1.18h-12.12c-.79,0-1.18-.39-1.18-1.18v-12.12c0-.78.39-1.18,1.18-1.18h12.12c.78,0,1.18.39,1.18,1.18v12.12ZM165.64,84.43c0,.78-.39,1.16-1.18,1.16h-12.12c-.79,0-1.18-.39-1.18-1.16v-12.15c0-.78.39-1.17,1.18-1.17h12.12c.78,0,1.18.39,1.18,1.17v12.15Z"/>
        <path class="cls-1" d="M224.47,46.7c0,.79-.39,1.18-1.18,1.18h-5.05l-24.07-16.69c-.23-.22-.34-.5-.34-.84v-13.13c0-.78.34-1.18,1.01-1.18h4.38c.34,0,.62.11.84.34l24.07,16.85c.22.23.34.5.34.84v12.62Z"/>
        <path class="cls-1" d="M191.81,47.47c0,.34-.11.62-.34.84l-9.26,9.26c-.56.56-1.12.56-1.68,0l-2.86-3.03c-.23-.22-.34-.51-.34-.84V10.77c0-.34.11-.62.34-.84l2.86-3.2c.56-.56,1.12-.56,1.68,0l9.26,9.26c.22.23.34.51.34.84v30.64Z"/>
        <path class="cls-1" d="M191.81,99.82c0,.34-.11.62-.34.84l-9.26,9.26c-.56.56-1.12.56-1.68,0l-2.86-3.2c-.23-.22-.34-.51-.34-.84v-42.92c0-.34.11-.62.34-.84l2.86-3.03c.56-.56,1.12-.56,1.68,0l9.26,9.26c.22.23.34.51.34.84v30.64Z"/>
        <path class="cls-1" d="M240.97,53.7c0,.34-.11.62-.34.84l-3.03,3.03c-.56.56-1.07.56-1.52,0l-9.26-9.26c-.23-.22-.34-.51-.34-.84v-30.64c0-.34.11-.62.34-.84l9.26-9.26c.45-.45.95-.45,1.52,0l3.03,3.2c.22.23.34.51.34.84v42.92Z"/>
        <path class="cls-1" d="M240.97,105.88c0,.34-.11.62-.34.84l-3.03,3.2c-.56.56-1.07.56-1.52,0l-9.26-9.26c-.23-.22-.34-.51-.34-.84v-30.64c0-.34.11-.62.34-.84l9.26-9.26c.45-.45.95-.45,1.52,0l3.03,3.03c.22.23.34.51.34.84v42.92Z"/>
        <path class="cls-1" d="M267.06,47.47c0,.34-.11.62-.34.84l-9.26,9.26c-.56.56-1.12.56-1.68,0l-2.86-3.03c-.23-.22-.34-.51-.34-.84V10.77c0-.34.11-.62.34-.84l2.86-3.2c.56-.56,1.12-.56,1.68,0l9.26,9.26c.22.23.34.51.34.84v30.64Z"/>
        <path class="cls-1" d="M300.55,14.47c-.23.23-.51.34-.84.34h-30.64c-.34,0-.62-.11-.84-.34l-9.26-9.09c-.56-.56-.56-1.12,0-1.68l3.03-3.03c.22-.22.51-.34.84-.34h43.09c.34,0,.62.11.84.34l3.03,3.03c.56.56.56,1.12,0,1.68l-9.26,9.09Z"/>
        <g>
          <path class="cls-1" d="M291.57,31.58l.02-5.43c0-.18-.03-.35-.08-.49-.06-.15-.14-.29-.25-.41l-5.72-8.38-.26-.39c-.29-.32-.58-.47-.88-.44-.03,0-.13,0-.16,0-.3,0-.54.11-.89.56l-.2.28-5.72,8.38c-.11.12-.19.25-.25.41-.06.14-.08.31-.08.49l.02,5.43-.02,5.43.02,5.43-.02,5.43c0,.18.03.35.08.49.06.15.14.29.25.41l5.72,8.38.26.39c.29.32.58.47.88.44.03,0,.13,0,.16,0,.3,0,.54-.11.89-.56l.2-.28,5.72-8.38c.11-.12.19-.25.25-.41.06-.14.08-.31.08-.49l-.02-5.43.02-5.43-.02-5.43Z"/>
          <path class="cls-1" d="M291.57,74.02l.02-5.43c0-.18-.03-.35-.08-.49-.06-.15-.14-.29-.25-.41l-5.72-8.38-.26-.39c-.29-.32-.58-.47-.88-.44-.03,0-.13,0-.16,0-.3,0-.54.11-.89.56l-.2.28-5.72,8.38c-.11.12-.19.25-.25.41-.06.14-.08.31-.08.49l.02,5.43-.02,5.43.02,5.43-.02,15.29c0,.18.03.35.08.49.06.15.14.29.25.41l5.72,8.38.26.39c.29.32.58.47.88.44.03,0,.13,0,.16,0,.3,0,.54-.11.89-.56l.2-.28,5.72-8.38c.11-.12.19-.25.25-.41.06-.14.08-.31.08-.49l-.02-15.28.02-5.43-.02-5.43Z"/>
        </g>
        <path class="cls-1" d="M316.21,53.7c0,.34-.11.62-.34.84l-3.03,3.03c-.56.56-1.07.56-1.52,0l-9.26-9.26c-.23-.22-.34-.51-.34-.84v-30.64c0-.34.11-.62.34-.84l9.26-9.26c.45-.45.95-.45,1.52,0l3.03,3.2c.22.23.34.51.34.84v42.92Z"/>
        <path class="cls-1" d="M38.23,31.59l.02-5.43c0-.18-.03-.35-.08-.49-.06-.15-.14-.29-.25-.41l-5.72-8.38-.26-.39c-.29-.32-.58-.47-.88-.44-.03,0-.13,0-.16,0-.3,0-.54.11-.89.56l-.2.28-5.72,8.38c-.11.12-.19.25-.25.41-.06.14-.08.31-.08.49l.02,5.43-.02,5.43.02,5.43-.02,5.43c0,.18.03.35.08.49.06.15.14.29.25.41l5.72,8.38.26.39c.29.32.58.47.88.44.03,0,.13,0,.16,0,.3,0,.54-.11.89-.56l.2-.28,5.72-8.38c.11-.12.19-.25.25-.41.06-.14.08-.31.08-.49l-.02-5.43.02-5.43-.02-5.43Z"/>
        <path class="cls-1" d="M80.24,57.23c-.56.56-1.11.56-1.66,0l-2.99-3.2c-.23-.22-.34-.51-.34-.84V4.04c0-.56.19-.95.58-1.18.39-.22.8-.11,1.25.34l12.31,12.46c.22.23.34.51.34.84v30.64c0,.34-.11.62-.34.84l-9.15,9.26Z"/>
        <path class="cls-1" d="M77.07,112.45c-.44.45-.86.59-1.25.42-.39-.17-.58-.53-.58-1.09v-49.32c0-.34.11-.62.34-.84l2.99-2.86c.55-.56,1.11-.56,1.66,0l9.15,9.26c.22.23.34.51.34.84v30.64c0,.34-.11.62-.34.84l-12.31,12.12Z"/>
        <path class="cls-1" d="M123.39,14.14c-.23.23-.51.34-.85.34h-30.96c-.34,0-.62-.11-.85-.34l-12.29-12.12c-.45-.45-.56-.9-.34-1.35.22-.45.62-.67,1.18-.67h49.32c.34,0,.62.11.84.34l3.03,2.86c.56.56.56,1.12,0,1.68l-9.09,9.26Z"/>
        <path class="cls-1" d="M129.45,115.64c-.23.23-.51.34-.84.34h-49.32c-.56,0-.95-.22-1.18-.67-.23-.45-.11-.9.34-1.35l12.29-12.12c.23-.22.51-.34.85-.34h30.96c.34,0,.62.11.85.34l9.09,9.09c.45.56.45,1.07,0,1.52l-3.03,3.2Z"/>
      </g>
    </g>
  </g>
</svg>